<svg width="21" height="21" viewBox="0 0 21 21" fill="none" xmlns="http://www.w3.org/2000/svg">
<g clip-path="url(#clip0_25_193)">
<path d="M7.65106 11.5856C7.65106 11.3225 7.43769 11.1094 7.17441 11.1094H5.51106C5.24809 11.1094 5.03467 11.3225 5.03467 11.5856V13.2487C5.03467 13.5121 5.24809 13.7253 5.51106 13.7253H7.17441C7.43769 13.7253 7.65106 13.5121 7.65106 13.2487V11.5856Z" fill="#A744FF"/>
<path d="M11.808 11.5856C11.808 11.3225 11.5946 11.1094 11.3319 11.1094H9.66829C9.40531 11.1094 9.19189 11.3225 9.19189 11.5856V13.2487C9.19189 13.5121 9.40531 13.7253 9.66829 13.7253H11.3319C11.5946 13.7253 11.808 13.5121 11.808 13.2487V11.5856Z" fill="#A744FF"/>
<path d="M15.965 11.5856C15.965 11.3225 15.7516 11.1094 15.4886 11.1094H13.8253C13.562 11.1094 13.3486 11.3225 13.3486 11.5856V13.2487C13.3486 13.5121 13.562 13.7253 13.8253 13.7253H15.4886C15.7516 13.7253 15.965 13.5121 15.965 13.2487V11.5856Z" fill="#A744FF"/>
<path d="M7.65106 15.743C7.65106 15.4795 7.43769 15.2665 7.17441 15.2665H5.51106C5.24809 15.2665 5.03467 15.4795 5.03467 15.743V17.4058C5.03467 17.669 5.24809 17.8822 5.51106 17.8822H7.17441C7.43769 17.8822 7.65106 17.669 7.65106 17.4058V15.743Z" fill="#A744FF"/>
<path d="M11.808 15.743C11.808 15.4795 11.5946 15.2665 11.3319 15.2665H9.66829C9.40531 15.2665 9.19189 15.4795 9.19189 15.743V17.4058C9.19189 17.669 9.40531 17.8822 9.66829 17.8822H11.3319C11.5946 17.8822 11.808 17.669 11.808 17.4058V15.743Z" fill="#A744FF"/>
<path d="M15.965 15.743C15.965 15.4795 15.7516 15.2665 15.4888 15.2665H13.8253C13.562 15.2665 13.3486 15.4795 13.3486 15.743V17.4058C13.3486 17.669 13.562 17.8822 13.8253 17.8822H15.4888C15.7516 17.8822 15.965 17.669 15.965 17.4058V15.743Z" fill="#A744FF"/>
<path d="M18.9393 2.33828V4.87858C18.9393 6.02677 18.0079 6.95203 16.8599 6.95203H15.5481C14.4 6.95203 13.4562 6.02677 13.4562 4.87858V2.32916H7.5436V4.87858C7.5436 6.02677 6.59984 6.95203 5.45191 6.95203H4.13986C2.99189 6.95203 2.06047 6.02677 2.06047 4.87858V2.33828C1.05713 2.36853 0.232666 3.19876 0.232666 4.21922V19.1066C0.232666 20.1462 1.07533 21.0001 2.11498 21.0001H18.8848C19.9229 21.0001 20.7671 20.1444 20.7671 19.1066V4.21922C20.7671 3.19876 19.9427 2.36853 18.9393 2.33828ZM18.3301 18.1795C18.3301 18.6288 17.9658 18.9933 17.5163 18.9933H3.44763C2.99817 18.9933 2.63388 18.6288 2.63388 18.1795V10.4896C2.63388 10.0402 2.99812 9.67567 3.44763 9.67567H17.5163C17.9657 9.67567 18.33 10.0402 18.33 10.4896L18.3301 18.1795Z" fill="#A744FF"/>
<path d="M4.13529 5.59015H5.43285C5.82669 5.59015 6.14602 5.27129 6.14602 4.87745V0.71296C6.14602 0.319075 5.82669 0 5.43285 0H4.13529C3.74141 0 3.42212 0.319075 3.42212 0.71296V4.87745C3.42212 5.27129 3.74141 5.59015 4.13529 5.59015Z" fill="#A744FF"/>
<path d="M15.5315 5.59015H16.829C17.2226 5.59015 17.542 5.27129 17.542 4.87745V0.71296C17.542 0.319075 17.2227 0 16.829 0H15.5315C15.1377 0 14.8184 0.319075 14.8184 0.71296V4.87745C14.8184 5.27129 15.1377 5.59015 15.5315 5.59015Z" fill="#A744FF"/>
</g>
<defs>
<clipPath id="clip0_25_193">
<rect width="21" height="21" fill="white"/>
</clipPath>
</defs>
</svg>
