<svg width="51" height="47" viewBox="0 0 51 47" fill="none" xmlns="http://www.w3.org/2000/svg">
<path d="M12.3133 25.2002C9.44256 25.2002 7.11841 27.3436 7.11841 29.9891C7.11841 32.6347 9.44418 34.7781 12.3133 34.7781C15.1808 34.7781 17.5082 32.6347 17.5082 29.9891C17.5082 27.3436 15.1808 25.2002 12.3133 25.2002ZM12.3133 31.436C11.4504 31.436 10.7433 30.7873 10.7433 29.9906C10.7433 29.194 11.4504 28.5453 12.3133 28.5453C13.1745 28.5453 13.88 29.194 13.88 29.9906C13.88 30.7873 13.1761 31.436 12.3133 31.436Z" fill="white"/>
<path d="M50.1404 26.0656L49.2905 19.6953C49.1235 18.4726 47.9638 17.5758 46.6258 17.6431L44.7639 17.7388L38.9835 12.9394C38.4256 12.4775 37.7071 12.2234 36.9578 12.2234L25.2137 12.2219C22.5782 12.2219 20.0221 13.0515 17.9672 14.573L11.4148 19.4248L2.60312 21.4545C1.47104 21.7146 0.676324 22.6532 0.676324 23.7279V26.0686C0.303291 26.0671 0 26.3451 0 26.6889V29.7843C0 30.2253 0.387629 30.5825 0.866084 30.5825H5.84039C5.8193 30.3837 5.77551 30.1939 5.77551 29.9906C5.77551 26.662 8.70138 23.9686 12.3117 23.9686C15.922 23.9686 18.8462 26.662 18.8462 29.9906C18.8462 30.1954 18.8008 30.3852 18.7797 30.5825H32.5544C32.5349 30.3837 32.4911 30.1939 32.4911 29.9906C32.4911 26.662 35.417 23.9686 39.0257 23.9686C42.6376 23.9686 45.5586 26.662 45.5586 29.9906C45.5586 30.1954 45.5164 30.3852 45.4937 30.5825H50.1339C50.6124 30.5825 50.9984 30.2253 50.9984 29.7843V26.8652C51.0065 26.4258 50.6189 26.0656 50.1404 26.0656ZM32.7101 18.238L16.3258 19.0018L19.4626 16.6775C21.1671 15.4145 23.2853 14.727 25.4732 14.727H32.7101V18.238ZM35.4316 18.1109V14.7285H36.4972C36.8669 14.7285 37.2221 14.854 37.4962 15.0827L40.8405 17.8568L35.4316 18.1109Z" fill="white"/>
<path d="M39.0289 25.2002C36.1581 25.2002 33.834 27.3436 33.834 29.9891C33.834 32.6347 36.1598 34.7781 39.0289 34.7781C41.898 34.7781 44.2237 32.6347 44.2237 29.9891C44.2237 27.3436 41.898 25.2002 39.0289 25.2002ZM39.0289 31.436C38.1644 31.436 37.4605 30.7873 37.4605 29.9906C37.4605 29.194 38.1644 28.5453 39.0289 28.5453C39.8901 28.5453 40.5972 29.194 40.5972 29.9906C40.5972 30.7873 39.8917 31.436 39.0289 31.436Z" fill="white"/>
</svg>
