<svg width="35" height="35" viewBox="0 0 35 35" fill="none" xmlns="http://www.w3.org/2000/svg">
<path d="M33.7466 18.0994C33.3845 19.064 32.4876 19.6875 31.4606 19.6875H30.625V31.7187C30.625 32.3225 30.135 32.8125 29.5312 32.8125H22.9687V25.1562C22.9687 22.1408 20.5155 19.6875 17.5 19.6875C14.4845 19.6875 12.0312 22.1408 12.0312 25.1562V32.8125H5.46874C4.86499 32.8125 4.37499 32.3225 4.37499 31.7187V19.6875H3.53827C2.51124 19.6875 1.61436 19.0651 1.25233 18.1004C0.890299 17.1358 1.15608 16.0748 1.93046 15.3989L14.7044 3.30201C16.2728 1.81779 18.7283 1.81779 20.2956 3.30201L33.1001 15.4273C33.8417 16.0737 34.1086 17.1347 33.7466 18.0994Z" fill="white"/>
</svg>
